<svg width="24" height="24" viewBox="0 0 24 24" fill="none" xmlns="http://www.w3.org/2000/svg">
<rect width="24" height="24" rx="5" fill="#20B933"/>
<path d="M4.02832 20.0429L5.15082 15.945C4.45832 14.7458 4.09415 13.385 4.09457 11.9913C4.09665 7.63083 7.64499 4.08333 12.0058 4.08333C14.1221 4.08417 16.1079 4.90792 17.6017 6.4025C19.095 7.8975 19.9175 9.88417 19.9167 11.9975C19.915 16.3579 16.3658 19.9058 12.0058 19.9058H12.0025C10.6787 19.9054 9.37749 19.5733 8.22207 18.9429L4.02832 20.0429Z" fill="white"/>
<path d="M4.02834 20.2513C3.97334 20.2513 3.92001 20.2296 3.88042 20.1896C3.82834 20.1367 3.80793 20.0596 3.82751 19.9883L4.92709 15.9733C4.24543 14.7625 3.88584 13.3875 3.88667 11.9917C3.88834 7.51583 7.53043 3.875 12.0058 3.875C14.1767 3.87583 16.2163 4.72125 17.7492 6.25542C19.2821 7.79 20.1258 9.82917 20.125 11.9975C20.1233 16.4729 16.4808 20.1142 12.0058 20.1142C10.6771 20.1138 9.36251 19.7858 8.19584 19.1654L4.08126 20.2442C4.06376 20.2492 4.04626 20.2513 4.02834 20.2513Z" fill="white"/>
<path d="M12.0058 4.08333C14.1221 4.08417 16.1079 4.90792 17.6017 6.4025C19.095 7.8975 19.9175 9.88417 19.9167 11.9975C19.915 16.3579 16.3658 19.9058 12.0058 19.9058H12.0025C10.6787 19.9054 9.37749 19.5733 8.22207 18.9429L4.02832 20.0429L5.15082 15.945C4.45832 14.7458 4.09415 13.385 4.09457 11.9912C4.09665 7.63083 7.64499 4.08333 12.0058 4.08333ZM12.0058 3.66667C7.41582 3.66667 3.67999 7.40083 3.6779 11.9912C3.67749 13.3942 4.03165 14.7767 4.70332 16.0004L3.62624 19.9333C3.58707 20.0771 3.62707 20.2304 3.73207 20.3362C3.81124 20.4162 3.91832 20.46 4.02832 20.46C4.06374 20.46 4.09915 20.4554 4.13415 20.4462L8.1704 19.3879C9.34874 19.9996 10.6696 20.3225 12.0025 20.3229C16.5958 20.3229 20.3317 16.5883 20.3337 11.9979C20.3346 9.77333 19.4692 7.68167 17.8971 6.10833C16.3242 4.53458 14.2321 3.6675 12.0058 3.66667Z" fill="#CFD8DC"/>
<path d="M16.6567 7.34667C15.415 6.10417 13.7646 5.41958 12.0079 5.41917C8.38124 5.41917 5.43166 8.3675 5.42999 11.9917C5.42958 13.2337 5.77708 14.4429 6.43541 15.49L6.59208 15.7387L5.92749 18.1642L8.41624 17.5117L8.65666 17.6542C9.66583 18.2533 10.8233 18.57 12.0033 18.5704H12.0058C15.63 18.5704 18.5796 15.6217 18.5808 11.9971C18.5812 10.2408 17.8983 8.58917 16.6567 7.34667Z" fill="#40C351"/>
<path fill-rule="evenodd" clip-rule="evenodd" d="M10.0283 8.68542C9.88041 8.35625 9.72458 8.34958 9.58333 8.34375C9.46791 8.33875 9.33625 8.33917 9.20458 8.33917C9.07291 8.33917 8.85875 8.38875 8.6775 8.58667C8.49625 8.78458 7.98541 9.2625 7.98541 10.235C7.98541 11.2075 8.69375 12.1475 8.7925 12.2792C8.89125 12.4108 10.16 14.4704 12.1692 15.2629C13.8387 15.9212 14.1787 15.7904 14.5412 15.7575C14.9037 15.7246 15.7108 15.2796 15.8754 14.8179C16.04 14.3562 16.04 13.9608 15.9908 13.8783C15.9412 13.7958 15.8096 13.7467 15.6121 13.6475C15.4146 13.5483 14.4425 13.0704 14.2612 13.0046C14.08 12.9387 13.9483 12.9058 13.8162 13.1037C13.6846 13.3012 13.3058 13.7467 13.1904 13.8783C13.075 14.0104 12.9596 14.0271 12.7621 13.9279C12.5646 13.8288 11.9279 13.6204 11.1725 12.9471C10.585 12.4233 10.1883 11.7763 10.0729 11.5783C9.9575 11.3808 10.0604 11.2738 10.1596 11.175C10.2483 11.0863 10.3571 10.9442 10.4562 10.8287C10.555 10.7133 10.5879 10.6308 10.6537 10.4992C10.7196 10.3671 10.6867 10.2517 10.6371 10.1529C10.5883 10.0537 10.2042 9.07625 10.0283 8.68542Z" fill="white"/>
</svg>
